<svg width="22" height="23" viewBox="0 0 22 23" fill="none" xmlns="http://www.w3.org/2000/svg">
<path d="M17.9001 21.8894L21.7663 8.25907C22.2856 6.35313 21.9394 4.27392 20.7276 2.65676C19.5158 1.0396 17.6693 0.115511 15.6496 0.0577557L1.51191 0C0.300107 0 -0.450055 1.38614 0.300107 2.36798L2.55059 5.37128C2.83912 5.77557 3.30076 5.94884 3.7624 5.94884H8.6096C9.18665 5.94884 9.47517 6.69966 9.01353 7.0462L1.74273 12.4752C1.16568 12.9373 0.93486 13.7459 1.28109 14.3812C1.74273 15.2475 2.78141 15.4208 3.47387 14.901L14.2647 6.75742C14.784 7.45049 14.6686 8.49009 13.9184 9.00989L1.22338 18.4241C0.415517 19.0016 0.300107 20.099 0.877155 20.9076C1.4542 21.7162 2.55059 21.8317 3.35846 21.2541L12.7066 14.2657C13.1683 13.9191 13.8607 14.3812 13.6876 14.9587L12.7643 18.0775C12.6489 18.5396 12.7066 19.0016 12.9952 19.4059L15.2457 22.4092C15.9958 23.3911 17.5538 23.1023 17.9001 21.8894Z" fill="white"/>
</svg>
